<svg width="2452" height="618" viewBox="0 0 2452 618" fill="none" xmlns="http://www.w3.org/2000/svg">
<path d="M416.476 26.0163C407.843 31.8696 402.371 37.6719 399.81 47.3048C397.906 59.377 400.244 68.7794 408.133 78.6088C421.288 92.5191 443.374 99.6883 462.868 101.292C471.547 101.524 479.32 100.457 487.658 98.2664V98.2664C495.843 97.0569 503.375 101.989 509.178 107.887C540.95 140.18 561.354 188.733 563.239 230.467C564.03 259.373 564.305 291.531 542.311 314.338C526.36 328.634 505.666 334.02 483.929 334.118C468.653 333.872 454.321 330.195 439.648 326.595C412.594 320.112 387.201 315.403 359.035 315.44C357.275 315.442 357.275 315.442 355.48 315.444C288.167 315.707 227.908 342.22 180.514 385.398C160.435 404.223 145.095 426.804 130.795 449.495C117.63 470.318 102.522 488.573 84.0155 505.667V505.667C81.1749 508.309 78.0277 510.622 74.5887 512.418C71.5049 514.027 68.6029 515.447 65.8678 516.698C44.751 526.355 0.472205 508.489 6.54545 530.901C12.0366 551.165 59.3606 588.312 161.168 559.647C183.803 553.274 203.573 540.947 223.744 529.648C225.149 528.861 226.892 529.797 227.021 531.403V531.403C228.524 549.122 234.58 567.814 238.932 585.343C249.375 609.246 299.854 606.059 308.557 591.717C310.502 588.092 311.492 584.268 312.62 580.383C314.551 572.714 316.133 565.013 317.586 557.257C317.895 555.657 318.203 554.057 318.521 552.408C318.898 550.452 319.272 548.495 319.644 546.537C320.265 543.266 323.309 541.029 326.616 541.421V541.421C353.772 544.504 380.218 544.061 407.396 542.54C409.578 542.418 411.495 543.979 411.81 546.141V546.141C412.554 551.184 413.317 556.388 414.082 561.5C415.444 570.594 415.121 580.333 419.432 588.454C436.663 620.913 517.481 620.409 541.542 591.008C552.678 577.401 548.628 557.158 550.616 539.688V539.688C551.276 533.853 551.924 528.018 552.539 522.179C553.143 516.491 553.794 510.808 554.455 505.125C554.627 503.379 554.8 501.633 554.978 499.833C555.904 492.109 556.106 490.423 558.821 486.058C560.686 483.06 563.252 480.566 566.17 478.577V478.577C568.179 477.082 568.179 477.082 570.229 475.558C572.366 474.045 572.366 474.045 574.547 472.502C596.267 456.325 615.627 438.159 630.573 416.429C631.2 415.531 631.827 414.632 632.473 413.706C651.547 386.014 661.266 354.392 665.821 322.113C665.967 321.083 666.112 320.054 666.262 318.993C675.992 248.308 666.603 176.644 628.832 113.66C628.227 112.65 627.621 111.64 626.997 110.599C609.505 81.8545 585.642 54.5629 557.467 33.9839C555.75 32.6898 554.034 31.3957 552.265 30.0623C509.819 -1.39448 461.131 -1.23404 416.476 26.0163ZM552.245 62.6673C553.158 63.443 554.071 64.2187 555.012 65.0179C607.747 109.993 640.507 175.919 643.114 242.062C643.328 249.989 643.338 257.913 643.301 265.842C643.299 267.241 643.296 268.64 643.294 270.082C643.22 292.062 642.157 313.534 637.536 335.16C637.275 336.407 637.014 337.655 636.745 338.941C625.408 391.44 591 434.789 543.134 465.057C527.373 476.153 526.18 476.992 511.012 482.028C509.117 482.657 507.189 481.138 507.369 479.15V479.15C508.184 469.575 508.926 459.991 509.273 450.391C509.29 449.986 509.305 449.652 509.317 449.365C509.419 446.99 509.61 444.496 508.587 442.35V442.35C507.291 439.634 504.235 438.052 501.272 437.524C500.965 437.469 500.662 437.427 500.36 437.396C494.358 436.778 487.756 440.506 486.857 446.472C486.758 447.13 486.663 447.865 486.55 448.707C486.354 450.123 486.158 451.539 485.955 452.998C485.657 455.325 485.657 455.325 485.353 457.699C485.134 459.322 484.915 460.945 484.689 462.617C483.979 467.935 483.295 473.255 482.62 478.577C482.28 481.245 482.28 481.245 481.934 483.968C480.309 496.84 478.739 509.718 477.18 522.598C476.273 530.089 475.362 537.579 474.447 545.069C474.244 546.76 474.041 548.452 473.831 550.194C473.639 551.766 473.447 553.338 473.249 554.958C473.083 556.33 472.917 557.702 472.746 559.116C472.501 560.799 472.617 567.869 472.767 575.775C473.05 590.668 461.777 598.104 450.315 588.591V588.591C444.418 583.696 441.054 577.184 440.493 569.541C439.942 562.023 439.469 553.591 438.669 549.09C438.473 547.99 438.277 546.89 438.075 545.756C435.881 533.409 433.754 521.058 431.876 508.667C431.57 506.651 431.265 504.636 430.95 502.559C430.376 498.723 429.813 494.885 429.26 491.047C429.002 489.31 428.743 487.574 428.476 485.785C428.258 484.272 428.04 482.759 427.816 481.2C427.644 480.391 427.452 479.602 427.241 478.829C425.497 472.433 418.423 466.706 411.843 467.514V467.514C407.823 468.007 405.319 470.417 404.239 474.321C402.182 481.757 404.892 490.891 406.032 498.098C406.355 499.946 406.678 501.795 407.011 503.7V503.7C408.132 511.286 402.366 517.83 394.746 518.697C384.478 519.864 374.272 520.314 363.713 520.307C362.115 520.308 360.517 520.309 358.871 520.31V520.31C340.134 520.724 328.294 502.466 332.449 484.192V484.192C332.717 483.008 332.984 481.825 333.259 480.606C334.368 475.704 335.478 470.803 336.614 465.907C340.61 448.635 342.395 440.92 342.819 435.999C343.376 429.518 339.029 423.04 332.542 422.55V422.55C328.443 422.24 323.762 423.698 321.48 427.118C319.704 429.78 319.076 432.819 318.237 436.66C317.818 438.53 317.399 440.401 316.967 442.328C316.532 444.365 316.097 446.401 315.648 448.499C315.175 450.64 314.7 452.781 314.224 454.922C312.966 460.592 311.731 466.267 310.502 471.942C308.566 480.86 306.594 489.771 304.627 498.683C304.142 500.88 303.658 503.077 303.176 505.275C299.291 522.957 296.256 546.647 292.396 566.619C290.825 574.745 283.707 580.383 275.43 580.383V580.383C266.519 580.383 258.706 573.884 257.227 565.096C257.014 563.833 256.845 562.804 256.751 562.179C255.295 552.553 253.813 542.93 252.311 533.31C251.403 527.477 250.504 521.644 249.631 515.808C248.788 510.173 247.916 504.543 247.024 498.914C246.689 496.768 246.364 494.621 246.05 492.472C245.608 489.459 245.125 486.451 244.641 483.443C244.52 482.653 244.399 481.864 244.277 481.069C243.989 479.195 243.611 477.321 242.853 475.584C242.143 473.959 241.331 472.659 240.273 471.463C237.552 468.387 233.222 467.084 229.151 467.627C228.573 467.704 228.001 467.81 227.352 467.956C224.666 468.559 222.157 469.575 220.978 472.062V472.062C220.092 473.932 219.91 476.455 220.182 478.505C220.442 480.465 220.728 482.421 221.077 484.369C221.264 485.49 221.431 486.496 221.576 487.407C223.451 499.193 213.176 508.553 202.378 513.634V513.634C200.264 514.784 198.158 515.949 196.062 517.126C157.689 543.677 112.346 551.597 66.5391 550.506C53.2671 550.19 47.3158 535.988 60.5909 535.859V535.859C61.8166 535.847 64.0586 535.716 65.2521 535.437C111.022 524.738 133.353 492.316 162.786 447.055C195.24 397.596 245.099 358.789 306.813 343.881C319.963 341.021 333.347 338.973 346.85 338.347C348.565 338.263 350.279 338.178 352.045 338.092C383.739 337.308 414.158 344.201 444.604 351.444C446.359 351.861 446.359 351.861 448.15 352.287C451.353 353.052 454.554 353.826 457.754 354.6C486.655 361.045 515.992 357.388 542.121 344.435C565.693 330.487 578.248 312.062 584.372 287.325C597.368 230.519 585.126 170.22 550.87 121.388C534.426 98.7644 517.374 61.9528 484.904 74.7183C470.8 79.6769 457.184 77.674 443.496 72.5397C439.097 70.632 435.304 68.9698 432.136 66.6959C425.573 61.9853 423.729 51.8977 429.857 46.6325V46.6325C474.984 15.7506 515.175 30.4372 552.245 62.6673ZM509.765 506.952C519.306 501.269 528.411 510.61 527.048 521.632C524.858 539.35 522.347 559.718 520.308 576.185C519.576 582.099 517.851 586.712 513.1 590.308V590.308C501.665 598.964 490.444 590.971 493.117 576.881C495.349 565.117 497.654 553.193 497.967 549.543C498.186 546.762 498.367 543.978 498.516 541.193C498.694 526.1 498.712 524.506 503.863 513.718C505.193 510.932 507.112 508.532 509.765 506.952V506.952Z" fill="black" stroke="black" stroke-width="10.0686"/>
<circle cx="469.028" cy="53.5634" r="9.79388" fill="black"/>
<path d="M908.186 570.176V316.029H817.508V274.849H1043.79V316.029H953.109V570.176H908.186Z" fill="black"/>
<path d="M1137.91 575.168C1116.28 575.168 1097.56 570.453 1081.76 561.025C1066.23 551.597 1054.16 538.148 1045.57 520.678C1037.25 503.208 1033.09 482.826 1033.09 459.533C1033.09 436.239 1037.25 415.996 1045.57 398.803C1054.16 381.333 1066.23 367.884 1081.76 358.456C1097.28 348.75 1115.59 343.898 1136.66 343.898C1156.63 343.898 1174.24 348.612 1189.49 358.04C1204.74 367.191 1216.52 380.501 1224.84 397.971C1233.44 415.442 1237.74 436.516 1237.74 461.196V472.427H1078.84C1079.95 494.057 1085.64 510.279 1095.9 521.094C1106.44 531.908 1120.58 537.316 1138.32 537.316C1151.36 537.316 1162.17 534.266 1170.77 528.165C1179.37 522.064 1185.33 513.884 1188.66 503.624L1234.41 506.535C1228.59 527.056 1217.08 543.694 1199.89 556.45C1182.97 568.928 1162.31 575.168 1137.91 575.168ZM1078.84 439.151H1191.15C1189.76 419.462 1184.08 404.904 1174.1 395.476C1164.39 386.047 1151.91 381.333 1136.66 381.333C1120.85 381.333 1107.82 386.325 1097.56 396.308C1087.58 406.013 1081.34 420.294 1078.84 439.151Z" fill="black"/>
<path d="M1367.68 575.168C1346.89 575.168 1329.28 571.979 1314.86 565.601C1300.72 559.223 1289.76 550.488 1282 539.396C1274.23 528.026 1269.8 514.993 1268.69 500.296L1314.03 498.216C1316.24 510.418 1321.51 520.123 1329.83 527.333C1338.15 534.543 1350.77 538.148 1367.68 538.148C1381.55 538.148 1392.5 535.929 1400.54 531.492C1408.59 527.056 1412.61 519.984 1412.61 510.279C1412.61 505.01 1411.22 500.573 1408.45 496.968C1405.95 493.086 1400.96 489.897 1393.47 487.401C1385.99 484.628 1374.89 481.994 1360.2 479.498C1338.29 475.339 1321.1 470.486 1308.62 464.94C1296.14 459.394 1287.27 452.323 1282 443.726C1276.73 435.13 1274.09 424.731 1274.09 412.53C1274.09 392.287 1281.58 375.787 1296.56 363.031C1311.81 350.276 1333.71 343.898 1362.28 343.898C1381.41 343.898 1397.49 347.225 1410.53 353.88C1423.56 360.258 1433.68 368.993 1440.89 380.085C1448.38 390.9 1453.09 403.102 1455.03 416.689L1409.7 419.185C1408.31 411.421 1405.54 404.765 1401.38 399.219C1397.49 393.396 1392.23 388.959 1385.57 385.909C1378.91 382.581 1371.01 380.917 1361.86 380.917C1347.72 380.917 1337.18 383.69 1330.25 389.236C1323.32 394.783 1319.85 401.992 1319.85 410.866C1319.85 417.521 1321.37 422.929 1324.42 427.088C1327.75 431.248 1333.02 434.714 1340.23 437.487C1347.44 439.983 1357.01 442.201 1368.93 444.142C1391.95 448.025 1409.97 452.877 1423.01 458.701C1436.04 464.247 1445.19 471.179 1450.46 479.498C1455.73 487.817 1458.36 497.939 1458.36 509.863C1458.36 523.728 1454.48 535.513 1446.72 545.219C1438.95 554.925 1428.27 562.412 1414.69 567.68C1401.1 572.672 1385.43 575.168 1367.68 575.168Z" fill="black"/>
<path d="M1579.71 570.176C1558.64 570.176 1543.11 565.323 1533.13 555.618C1523.14 545.912 1518.15 530.799 1518.15 510.279V296.895H1562.24V506.951C1562.24 517.211 1564.46 524.283 1568.9 528.165C1573.34 532.047 1580.13 533.988 1589.28 533.988H1620.89V570.176H1579.71ZM1484.46 385.077V348.889H1620.89V385.077H1484.46Z" fill="black"/>
<path d="M1737.99 575.168C1719.13 575.168 1702.63 570.453 1688.49 561.025C1674.62 551.597 1663.95 538.286 1656.46 521.094C1649.25 503.624 1645.64 483.103 1645.64 459.533C1645.64 435.962 1649.39 415.58 1656.88 398.387C1664.36 380.917 1675.04 367.468 1688.9 358.04C1702.77 348.612 1719.13 343.898 1737.99 343.898C1753.24 343.898 1766.83 347.087 1778.75 353.464C1790.67 359.842 1799.69 368.716 1805.79 380.085V274.849H1849.88V570.176H1808.7L1807.45 536.9C1801.35 548.824 1792.06 558.252 1779.58 565.185C1767.38 571.84 1753.52 575.168 1737.99 575.168ZM1749.63 536.9C1761.56 536.9 1771.68 533.85 1780 527.749C1788.32 521.648 1794.69 512.775 1799.13 501.128C1803.57 489.481 1805.79 475.616 1805.79 459.533C1805.79 442.894 1803.57 428.891 1799.13 417.521C1794.69 405.875 1788.32 397.14 1780 391.316C1771.68 385.216 1761.56 382.165 1749.63 382.165C1731.89 382.165 1717.74 389.098 1707.21 402.963C1696.67 416.551 1691.4 435.407 1691.4 459.533C1691.4 483.381 1696.67 502.237 1707.21 516.102C1717.74 529.967 1731.89 536.9 1749.63 536.9Z" fill="black"/>
<path d="M1905.13 570.176V348.889H1949.22V570.176H1905.13ZM1904.29 316.861V272.77H1950.05V316.861H1904.29Z" fill="black"/>
<path d="M2015.21 570.176V348.889H2055.55L2057.22 407.954L2051.81 405.043C2054.31 390.623 2059.02 378.976 2065.95 370.103C2072.89 361.229 2081.34 354.712 2091.33 350.553C2101.31 346.116 2112.12 343.898 2123.77 343.898C2140.41 343.898 2154.13 347.641 2164.95 355.128C2176.04 362.338 2184.36 372.321 2189.91 385.077C2195.73 397.556 2198.64 411.837 2198.64 427.92V570.176H2154.55V441.231C2154.55 428.197 2153.16 417.244 2150.39 408.37C2147.62 399.497 2143.04 392.703 2136.66 387.989C2130.29 383.274 2121.97 380.917 2111.71 380.917C2096.18 380.917 2083.56 386.047 2073.86 396.308C2064.15 406.568 2059.3 421.542 2059.3 441.231V570.176H2015.21Z" fill="black"/>
<path d="M2347.18 575.168C2326.1 575.168 2307.66 570.453 2291.86 561.025C2276.05 551.597 2263.85 538.148 2255.25 520.678C2246.66 503.208 2242.36 482.826 2242.36 459.533C2242.36 435.962 2246.66 415.58 2255.25 398.387C2263.85 381.195 2276.05 367.884 2291.86 358.456C2307.66 348.75 2326.1 343.898 2347.18 343.898C2368.25 343.898 2386.7 348.75 2402.5 358.456C2418.31 367.884 2430.51 381.195 2439.11 398.387C2447.7 415.58 2452 435.962 2452 459.533C2452 482.826 2447.7 503.208 2439.11 520.678C2430.51 538.148 2418.31 551.597 2402.5 561.025C2386.7 570.453 2368.25 575.168 2347.18 575.168ZM2347.18 536.9C2366.04 536.9 2380.59 530.106 2390.85 516.518C2401.11 502.653 2406.24 483.658 2406.24 459.533C2406.24 435.407 2401.11 416.551 2390.85 402.963C2380.59 389.098 2366.04 382.165 2347.18 382.165C2328.6 382.165 2314.04 389.098 2303.5 402.963C2293.24 416.551 2288.11 435.407 2288.11 459.533C2288.11 483.658 2293.24 502.653 2303.5 516.518C2314.04 530.106 2328.6 536.9 2347.18 536.9Z" fill="black"/>
</svg>
